<svg xmlns="http://www.w3.org/2000/svg" width="4159.003" height="458.35" viewBox="0 0 4159.003 458.35"><path d="M722.207 756.955c-13.802-10.99-27.227-22.502-40.888-33.678-1.372-1.122-4.95-3.818-5.059-3.625-.49.87-2.176 3.341-2.995 4.62-3.504 5.476-6.49 11.61-11.834 15.312-10.131 7.015-21.57 4.761-29.444-4.717-7.875-9.479-12.506-26.247-15.21-38.27-2.704-12.021-7.414-23.157-15.909-32.082-12.613-13.254-33.315-14.758-51.365-11.775-33.747 5.579-58.312 20.976-92.147 15.97-25.763-3.813-56.307-18.491-70.295-40.46-13.989-21.966-20.172-48.146-22.006-74.123-2.307-32.695 2.249-66.647 18.453-95.139 16.201-28.49 45.23-50.724 77.88-53.59 32.236-2.831 64.484 13.669 84.653 38.974 20.168 25.307 29.063 58.36 29.002 90.721-.062 32.359-6.422 60.002-18.003 90.219 17.579 3.296 38.287 2.984 54.468-4.636 22.145-10.43 28.115-29.397 32.14-53.543 10.29-61.74-6.465-130.382-53.595-171.57-33.454-29.236-79.128-42.235-123.548-41.288-35.64.758-71.585 10.278-100.894 30.572-51.8 35.866-76.936 101.982-75.327 164.969.993 38.813 11.36 77.997 33.732 109.73 22.245 31.55 55.935 54.643 93.132 64.969s77.636 7.988 113.761-5.623c9.191-3.461 19.912-7.537 28.262-2.364 3.906 2.42 6.461 6.487 8.68 10.512 10.51 19.065 16.882 40.801 31.442 56.985 14.68 16.318 37.179 25.262 59.055 23.474 25.223-2.062 48.719-18.398 59.445-41.334M723.057 598.633v-48.086H871.24v48.086z" style="fill:#f36922;fill-opacity:1;fill-rule:nonzero;stroke:none;stroke-width:.133333" transform="translate(-290.211 -349.374)"/><path d="M4295.274 730.735q-23.571 0-40.759-10.313-16.942-10.558-26.272-27.5-9.085-16.942-9.085-36.339 0-20.38 12.031-38.55t41.25-30.691q29.465-12.768 81.273-16.697-1.72 11.54-5.648 21.362-3.928 9.576-10.803 15.96-6.63 6.384-16.942 8.348-12.277 1.964-20.134 6.875t-11.54 12.031q-3.683 6.875-3.683 14.978 0 12.768 9.084 21.362 9.085 8.594 21.853 8.594 13.996 0 28.237-9.576 14.486-9.822 27.254-24.8v-74.151q0-25.536-14.24-40.76-13.996-15.223-39.778-15.223-12.03 0-26.026 2.456t-31.43 8.84l-16.695-43.215q21.852-10.067 44.933-14.241 23.326-4.42 40.513-4.42 52.3 0 80.536 27.5 28.482 27.5 28.482 79.063v90.848q0 13.504 1.719 28.973t6.138 32.902h-50.58q-6.63-3.683-11.05-10.312-4.173-6.876-7.12-14.242l-1.473-9.821-5.893 8.348q-22.098 20.134-38.795 26.273-16.45 6.138-35.357 6.138M4140.511 730.735q-34.13 0-64.33-13.75-29.955-13.75-48.616-43.214-18.661-29.465-18.661-76.608 0-44.442 18.66-73.906 18.662-29.71 48.617-44.442 30.2-14.732 64.33-14.732 13.26 0 28.973 2.7 15.715 2.456 30.447 8.103l-16.696 45.67q-11.786-2.946-23.326-4.42-11.295-1.473-19.398-1.473-17.678 0-30.937 10.067-13.26 9.822-20.625 28.482-7.366 18.416-7.366 43.951 0 25.782 7.366 44.442 7.366 18.416 20.625 28.483t30.937 10.067q10.313 0 22.099-2.701 11.785-2.947 27.5-9.085l16.696 45.178q-19.152 8.84-36.094 13.014t-30.2 4.174M3933.204 437.074q-16.942 0-28.728-11.54-11.54-11.786-11.54-28.728 0-17.433 11.54-29.219 11.786-12.031 28.728-12.031t28.482 12.031q11.785 11.786 11.785 29.219 0 16.942-11.785 28.728-11.54 11.54-28.482 11.54M3898.829 724.351V470.467h68.75V724.35zM3829.513 519.083q-14.242 0-24.063-7.612-9.821-7.611-15.96-18.906-5.893-11.295-9.085-22.098h71.206v48.616z" style="fill:#f36922;stroke-width:649.608" transform="matrix(1.00083 0 0 .99917 -290.211 -349.374)"/><path d="M3795.138 730.735q-46.652 0-71.452-26.763t-24.799-76.853V519.083h-40.759v-38.795l40.76-9.821v-60.402l64.82-21.116v238.17q0 25.044 10.559 39.04t27.746 13.996q7.12 0 16.205-1.474t21.607-5.893l14.241 44.688q-18.415 6.138-32.656 9.576-13.996 3.683-26.272 3.683M3484.214 730.735q-23.572 0-40.76-10.313-16.941-10.558-26.272-27.5-9.084-16.942-9.084-36.339 0-20.38 12.03-38.55 12.032-18.169 41.251-30.691 29.464-12.768 81.272-16.697-1.718 11.54-5.647 21.362-3.929 9.576-10.804 15.96-6.629 6.384-16.942 8.348-12.276 1.964-20.134 6.875-7.857 4.91-11.54 12.031-3.683 6.875-3.683 14.978 0 12.768 9.085 21.362t21.853 8.594q13.995 0 28.236-9.576 14.487-9.822 27.255-24.8v-74.151q0-25.536-14.241-40.76-13.996-15.223-39.777-15.223-12.031 0-26.027 2.456-13.995 2.455-31.428 8.84l-16.697-43.215q21.853-10.067 44.933-14.241 23.326-4.42 40.514-4.42 52.299 0 80.535 27.5 28.483 27.5 28.483 79.063v90.848q0 13.504 1.718 28.973 1.72 15.469 6.139 32.902h-50.58q-6.63-3.683-11.05-10.312-4.174-6.876-7.12-14.242l-1.474-9.821-5.892 8.348q-22.099 20.134-38.795 26.273-16.45 6.138-35.357 6.138M3132.04 724.351V544.128q0-12.277-4.665-20.134-4.42-7.858-16.942-7.858-4.42 0-8.84.983-4.42.982-10.312 1.473-11.786.736-20.87-9.822-8.84-10.803-15.47-24.062 26.519-10.804 44.443-15.714t35.111-4.911q16.942 0 31.92 8.594 15.223 8.593 24.8 26.272 9.575 17.433 9.575 44.196v181.206zM2975.388 724.351v-192.01q0-13.75-1.719-29.218-1.473-15.469-5.647-32.656h56.964q11.786 13.259 15.47 26.272 3.682 13.014 3.682 27.746V724.35zM3288.692 724.351V544.128q0-12.277-5.402-20.134t-19.152-7.858q-4.42 0-9.576 1.228t-11.54 1.719q-11.785.737-21.361-9.822-9.33-10.803-15.96-24.062 27.009-11.05 45.67-15.96 18.66-5.156 35.848-5.156 16.942 0 32.902 8.594 16.205 8.593 26.518 26.272 10.312 17.433 10.312 44.196v181.206zM2785.759 724.351v-192.01q0-13.75-1.719-29.218t-6.138-32.656h52.053q4.175 3.192 8.84 13.504 4.665 10.313 6.384 22.835l.982 11.786 4.91-11.786q10.068-19.643 25.782-30.446 15.96-10.804 31.674-10.804 7.857 0 15.469 1.473t16.45 4.42l-7.856 55.491q-9.822-2.946-16.451-3.928-6.63-.983-12.523-.983-16.696 0-28.727 11.05-12.032 10.803-18.416 29.71-6.384 18.906-6.384 43.214V724.35zM2608.898 464.083q-21.116 0-44.196 7.857-22.836 7.857-42.724 24.062-19.89 16.205-32.411 41.496-12.277 25.045-12.277 59.666.001 42.722 18.416 72.677 18.66 29.71 48.616 45.424 29.955 15.47 64.576 15.47 24.308 0 47.634-9.085 23.572-9.085 42.477-26.272 18.907-17.433 30.202-42.232 11.294-24.799 11.293-55.982 0-39.04-16.695-68.996-16.697-30.2-46.407-47.143-29.464-16.942-68.504-16.942m0 50.089q19.152 0 32.165 11.294 13.013 11.05 19.644 29.957 6.63 18.906 6.629 41.741 0 23.08-6.63 41.986t-19.643 30.2-32.165 11.295q-26.763 0-42.968-23.326-15.961-23.324-15.962-60.155.001-22.835 6.631-41.741 6.876-18.907 19.888-29.957 13.26-11.294 32.41-11.294M2385.876 519.083q3.192-10.804 9.085-22.098 6.138-11.295 15.96-18.907 9.821-7.611 24.062-7.611h21.607v48.616z" style="fill:#f36922;stroke-width:649.608" transform="matrix(1.00083 0 0 .99917 -290.211 -349.374)"/><path d="M2304.358 724.351V519.083h-40.76v-38.795l40.76-9.821v-13.75q0-32.165 13.013-56.228 13.26-24.062 37.322-37.321 24.308-13.505 57.21-13.505 12.276 0 29.218 3.192 16.942 2.946 36.094 11.54l-15.223 43.706q-14.241-4.174-24.308-5.893-9.822-1.965-18.415-1.965-15.96 0-27.255 7.121-11.049 6.875-16.942 19.643t-5.893 29.71V724.35zM2001.783 724.351v-192.01q0-13.75-1.964-29.218-1.72-15.469-5.893-32.656h56.964q11.786 13.259 15.714 26.272 3.93 13.014 3.93 27.746V724.35zM2160.4 724.351V544.128q0-12.277-5.157-20.134-4.91-7.858-17.433-7.858-4.665 0-9.085 1.228t-11.54 1.719q-11.786.737-19.889-9.822-7.857-10.803-14.977-22.589 24.308-13.013 42.723-17.678 18.415-4.911 35.357-4.911t32.656 8.594 25.536 26.272q10.067 17.433 10.067 44.196v181.206zM1873.047 724.351v-357.01h68.26v357.01zM1449.102 724.351V352.118h68.259v372.233zM1635.218 724.351l-57.946-114.42-3.438-11.785-6.875 9.821-26.518 27.991q-5.402-33.884 4.42-62.12 9.821-28.237 27.5-49.844l44.196-53.527h79.063l-82.5 87.902 97.723 165.982zM1249.652 730.735q-23.572 0-40.76-10.313-16.941-10.558-26.272-27.5-9.084-16.942-9.084-36.339 0-20.38 12.03-38.55 12.032-18.169 41.25-30.691 29.465-12.768 81.273-16.697-1.718 11.54-5.647 21.362-3.929 9.576-10.804 15.96-6.63 6.384-16.942 8.348-12.276 1.964-20.134 6.875-7.857 4.91-11.54 12.031-3.683 6.875-3.683 14.978 0 12.768 9.085 21.362t21.853 8.594q13.995 0 28.236-9.576 14.487-9.822 27.255-24.8v-74.151q0-25.536-14.241-40.76-13.996-15.223-39.777-15.223-12.031 0-26.027 2.456-13.995 2.455-31.428 8.84l-16.697-43.215q21.853-10.067 44.933-14.241 23.326-4.42 40.514-4.42 52.299 0 80.535 27.5 28.483 27.5 28.483 79.063v90.848q0 13.504 1.718 28.973 1.72 15.469 6.139 32.902h-50.58q-6.63-3.683-11.05-10.312-4.174-6.876-7.12-14.242l-1.474-9.821-5.892 8.348q-22.099 20.134-38.795 26.273-16.451 6.138-35.357 6.138M990.29 724.351l-95.268-253.884h72.188l56.964 179.732 3.438 14.732 3.437-14.732 56.473-179.732h71.206L1063.46 724.35z" style="fill:#f36922;stroke-width:649.608" transform="matrix(1.00083 0 0 .99917 -290.211 -349.374)"/></svg>